<mxfile host="Electron" agent="Mozilla/5.0 (Windows NT 10.0; Win64; x64) AppleWebKit/537.36 (KHTML, like Gecko) draw.io/27.0.9 Chrome/134.0.6998.205 Electron/35.4.0 Safari/537.36" version="27.0.9">
  <diagram name="Página-1" id="xx8PHF11MAnORUUvhnel">
    <mxGraphModel dx="679" dy="400" grid="1" gridSize="10" guides="1" tooltips="1" connect="1" arrows="1" fold="1" page="1" pageScale="1" pageWidth="827" pageHeight="1169" math="0" shadow="0">
      <root>
        <mxCell id="0" />
        <mxCell id="1" parent="0" />
        <mxCell id="96SAA42TS0Xs-A5mXOcb-1" value="Administrador" style="shape=umlActor;verticalLabelPosition=bottom;verticalAlign=top;html=1;outlineConnect=0;" vertex="1" parent="1">
          <mxGeometry x="110" y="340" width="30" height="60" as="geometry" />
        </mxCell>
        <mxCell id="96SAA42TS0Xs-A5mXOcb-2" value="Eleitor" style="shape=umlActor;verticalLabelPosition=bottom;verticalAlign=top;html=1;outlineConnect=0;" vertex="1" parent="1">
          <mxGeometry x="80" y="830" width="30" height="60" as="geometry" />
        </mxCell>
        <mxCell id="96SAA42TS0Xs-A5mXOcb-11" value="Cadastrar UEv" style="ellipse;whiteSpace=wrap;html=1;" vertex="1" parent="1">
          <mxGeometry x="240" y="270" width="90" height="40" as="geometry" />
        </mxCell>
        <mxCell id="96SAA42TS0Xs-A5mXOcb-12" value="Validar UEv" style="ellipse;whiteSpace=wrap;html=1;" vertex="1" parent="1">
          <mxGeometry x="240" y="330" width="90" height="40" as="geometry" />
        </mxCell>
        <mxCell id="96SAA42TS0Xs-A5mXOcb-13" value="Gerenciar candidatos" style="ellipse;whiteSpace=wrap;html=1;" vertex="1" parent="1">
          <mxGeometry x="240" y="380" width="90" height="40" as="geometry" />
        </mxCell>
        <mxCell id="96SAA42TS0Xs-A5mXOcb-14" value="Gerenciar Eleitores" style="ellipse;whiteSpace=wrap;html=1;" vertex="1" parent="1">
          <mxGeometry x="240" y="430" width="90" height="40" as="geometry" />
        </mxCell>
        <mxCell id="96SAA42TS0Xs-A5mXOcb-27" value="" style="edgeStyle=orthogonalEdgeStyle;rounded=0;orthogonalLoop=1;jettySize=auto;html=1;dashed=1;" edge="1" parent="1" source="96SAA42TS0Xs-A5mXOcb-15" target="96SAA42TS0Xs-A5mXOcb-16">
          <mxGeometry relative="1" as="geometry" />
        </mxCell>
        <mxCell id="96SAA42TS0Xs-A5mXOcb-28" value="&amp;lt;&amp;lt;include&amp;gt;&amp;gt;" style="edgeLabel;html=1;align=center;verticalAlign=middle;resizable=0;points=[];" vertex="1" connectable="0" parent="96SAA42TS0Xs-A5mXOcb-27">
          <mxGeometry x="-0.2552" relative="1" as="geometry">
            <mxPoint x="37" y="-20" as="offset" />
          </mxGeometry>
        </mxCell>
        <mxCell id="96SAA42TS0Xs-A5mXOcb-15" value="Totalizar votos&lt;span style=&quot;color: rgba(0, 0, 0, 0); font-family: monospace; font-size: 0px; text-align: start; text-wrap-mode: nowrap;&quot;&gt;%3CmxGraphModel%3E%3Croot%3E%3CmxCell%20id%3D%220%22%2F%3E%3CmxCell%20id%3D%221%22%20parent%3D%220%22%2F%3E%3CmxCell%20id%3D%222%22%20value%3D%22Listar%20candidatos%22%20style%3D%22ellipse%3BwhiteSpace%3Dwrap%3Bhtml%3D1%3B%22%20vertex%3D%221%22%20parent%3D%221%22%3E%3CmxGeometry%20x%3D%22240%22%20y%3D%22430%22%20width%3D%2290%22%20height%3D%2240%22%20as%3D%22geometry%22%2F%3E%3C%2FmxCell%3E%3C%2Froot%3E%3C%2FmxGraphModel%3E&lt;/span&gt;" style="ellipse;whiteSpace=wrap;html=1;" vertex="1" parent="1">
          <mxGeometry x="240" y="480" width="90" height="40" as="geometry" />
        </mxCell>
        <mxCell id="96SAA42TS0Xs-A5mXOcb-16" value="Listar candidatos" style="ellipse;whiteSpace=wrap;html=1;" vertex="1" parent="1">
          <mxGeometry x="480" y="460" width="90" height="40" as="geometry" />
        </mxCell>
        <mxCell id="96SAA42TS0Xs-A5mXOcb-22" value="" style="endArrow=classic;html=1;rounded=0;entryX=0;entryY=0.5;entryDx=0;entryDy=0;" edge="1" parent="1" source="96SAA42TS0Xs-A5mXOcb-1" target="96SAA42TS0Xs-A5mXOcb-12">
          <mxGeometry width="50" height="50" relative="1" as="geometry">
            <mxPoint x="260" y="490" as="sourcePoint" />
            <mxPoint x="310" y="440" as="targetPoint" />
          </mxGeometry>
        </mxCell>
        <mxCell id="96SAA42TS0Xs-A5mXOcb-23" value="" style="endArrow=classic;html=1;rounded=0;entryX=0;entryY=0.5;entryDx=0;entryDy=0;" edge="1" parent="1" source="96SAA42TS0Xs-A5mXOcb-1" target="96SAA42TS0Xs-A5mXOcb-11">
          <mxGeometry width="50" height="50" relative="1" as="geometry">
            <mxPoint x="190" y="391" as="sourcePoint" />
            <mxPoint x="290" y="330" as="targetPoint" />
          </mxGeometry>
        </mxCell>
        <mxCell id="96SAA42TS0Xs-A5mXOcb-24" value="" style="endArrow=classic;html=1;rounded=0;entryX=0;entryY=0.5;entryDx=0;entryDy=0;" edge="1" parent="1" source="96SAA42TS0Xs-A5mXOcb-1" target="96SAA42TS0Xs-A5mXOcb-13">
          <mxGeometry width="50" height="50" relative="1" as="geometry">
            <mxPoint x="180" y="431" as="sourcePoint" />
            <mxPoint x="280" y="370" as="targetPoint" />
          </mxGeometry>
        </mxCell>
        <mxCell id="96SAA42TS0Xs-A5mXOcb-25" value="" style="endArrow=classic;html=1;rounded=0;entryX=0;entryY=0;entryDx=0;entryDy=0;" edge="1" parent="1" source="96SAA42TS0Xs-A5mXOcb-1" target="96SAA42TS0Xs-A5mXOcb-14">
          <mxGeometry width="50" height="50" relative="1" as="geometry">
            <mxPoint x="200" y="481" as="sourcePoint" />
            <mxPoint x="300" y="420" as="targetPoint" />
          </mxGeometry>
        </mxCell>
        <mxCell id="96SAA42TS0Xs-A5mXOcb-26" value="" style="endArrow=classic;html=1;rounded=0;entryX=0;entryY=0;entryDx=0;entryDy=0;" edge="1" parent="1" source="96SAA42TS0Xs-A5mXOcb-1" target="96SAA42TS0Xs-A5mXOcb-15">
          <mxGeometry width="50" height="50" relative="1" as="geometry">
            <mxPoint x="210" y="521" as="sourcePoint" />
            <mxPoint x="310" y="460" as="targetPoint" />
          </mxGeometry>
        </mxCell>
        <mxCell id="96SAA42TS0Xs-A5mXOcb-30" value="Listar eleitores" style="ellipse;whiteSpace=wrap;html=1;" vertex="1" parent="1">
          <mxGeometry x="480" y="510" width="90" height="40" as="geometry" />
        </mxCell>
        <mxCell id="96SAA42TS0Xs-A5mXOcb-32" value="" style="edgeStyle=orthogonalEdgeStyle;rounded=0;orthogonalLoop=1;jettySize=auto;html=1;dashed=1;entryX=0;entryY=0.5;entryDx=0;entryDy=0;exitX=1;exitY=1;exitDx=0;exitDy=0;" edge="1" parent="1" source="96SAA42TS0Xs-A5mXOcb-15" target="96SAA42TS0Xs-A5mXOcb-30">
          <mxGeometry relative="1" as="geometry">
            <mxPoint x="320" y="560" as="sourcePoint" />
            <mxPoint x="430" y="560" as="targetPoint" />
            <Array as="points">
              <mxPoint x="405" y="514" />
              <mxPoint x="405" y="530" />
            </Array>
          </mxGeometry>
        </mxCell>
        <mxCell id="96SAA42TS0Xs-A5mXOcb-33" value="&amp;lt;&amp;lt;include&amp;gt;&amp;gt;" style="edgeLabel;html=1;align=center;verticalAlign=middle;resizable=0;points=[];" vertex="1" connectable="0" parent="96SAA42TS0Xs-A5mXOcb-32">
          <mxGeometry x="-0.2552" relative="1" as="geometry">
            <mxPoint x="46" y="16" as="offset" />
          </mxGeometry>
        </mxCell>
        <mxCell id="96SAA42TS0Xs-A5mXOcb-34" value="Gerar relatórios" style="ellipse;whiteSpace=wrap;html=1;" vertex="1" parent="1">
          <mxGeometry x="240" y="569.5" width="90" height="40" as="geometry" />
        </mxCell>
        <mxCell id="96SAA42TS0Xs-A5mXOcb-40" value="" style="edgeStyle=orthogonalEdgeStyle;rounded=0;orthogonalLoop=1;jettySize=auto;html=1;dashed=1;exitX=1;exitY=0.5;exitDx=0;exitDy=0;" edge="1" parent="1" target="96SAA42TS0Xs-A5mXOcb-42" source="96SAA42TS0Xs-A5mXOcb-12">
          <mxGeometry relative="1" as="geometry">
            <mxPoint x="330" y="350" as="sourcePoint" />
          </mxGeometry>
        </mxCell>
        <mxCell id="96SAA42TS0Xs-A5mXOcb-41" value="&amp;lt;&amp;lt;include&amp;gt;&amp;gt;" style="edgeLabel;html=1;align=center;verticalAlign=middle;resizable=0;points=[];" vertex="1" connectable="0" parent="96SAA42TS0Xs-A5mXOcb-40">
          <mxGeometry x="-0.2552" relative="1" as="geometry">
            <mxPoint as="offset" />
          </mxGeometry>
        </mxCell>
        <mxCell id="96SAA42TS0Xs-A5mXOcb-42" value="Listar candidatos" style="ellipse;whiteSpace=wrap;html=1;" vertex="1" parent="1">
          <mxGeometry x="480" y="310" width="90" height="40" as="geometry" />
        </mxCell>
        <mxCell id="96SAA42TS0Xs-A5mXOcb-43" value="Listar eleitores" style="ellipse;whiteSpace=wrap;html=1;" vertex="1" parent="1">
          <mxGeometry x="480" y="360" width="90" height="40" as="geometry" />
        </mxCell>
        <mxCell id="96SAA42TS0Xs-A5mXOcb-44" value="" style="edgeStyle=orthogonalEdgeStyle;rounded=0;orthogonalLoop=1;jettySize=auto;html=1;dashed=1;entryX=0;entryY=0.5;entryDx=0;entryDy=0;exitX=1;exitY=1;exitDx=0;exitDy=0;" edge="1" parent="1" target="96SAA42TS0Xs-A5mXOcb-43" source="96SAA42TS0Xs-A5mXOcb-12">
          <mxGeometry relative="1" as="geometry">
            <mxPoint x="317" y="364" as="sourcePoint" />
            <mxPoint x="430" y="410" as="targetPoint" />
            <Array as="points">
              <mxPoint x="405" y="364" />
              <mxPoint x="405" y="380" />
            </Array>
          </mxGeometry>
        </mxCell>
        <mxCell id="96SAA42TS0Xs-A5mXOcb-45" value="&amp;lt;&amp;lt;include&amp;gt;&amp;gt;" style="edgeLabel;html=1;align=center;verticalAlign=middle;resizable=0;points=[];" vertex="1" connectable="0" parent="96SAA42TS0Xs-A5mXOcb-44">
          <mxGeometry x="-0.2552" relative="1" as="geometry">
            <mxPoint as="offset" />
          </mxGeometry>
        </mxCell>
        <mxCell id="96SAA42TS0Xs-A5mXOcb-46" value="Contabilizar Brancos / Nulos / Ausentes" style="ellipse;whiteSpace=wrap;html=1;" vertex="1" parent="1">
          <mxGeometry x="420" y="560" width="110" height="50" as="geometry" />
        </mxCell>
        <mxCell id="96SAA42TS0Xs-A5mXOcb-47" value="" style="edgeStyle=orthogonalEdgeStyle;rounded=0;orthogonalLoop=1;jettySize=auto;html=1;dashed=1;entryX=0;entryY=0.5;entryDx=0;entryDy=0;exitX=1;exitY=1;exitDx=0;exitDy=0;" edge="1" parent="1" source="96SAA42TS0Xs-A5mXOcb-15" target="96SAA42TS0Xs-A5mXOcb-46">
          <mxGeometry relative="1" as="geometry">
            <mxPoint x="290" y="559.5" as="sourcePoint" />
            <mxPoint x="453" y="575.5" as="targetPoint" />
            <Array as="points">
              <mxPoint x="317" y="560" />
              <mxPoint x="400" y="560" />
              <mxPoint x="400" y="585" />
            </Array>
          </mxGeometry>
        </mxCell>
        <mxCell id="96SAA42TS0Xs-A5mXOcb-48" value="&amp;lt;&amp;lt;include&amp;gt;&amp;gt;" style="edgeLabel;html=1;align=center;verticalAlign=middle;resizable=0;points=[];" vertex="1" connectable="0" parent="96SAA42TS0Xs-A5mXOcb-47">
          <mxGeometry x="-0.2552" relative="1" as="geometry">
            <mxPoint x="25" as="offset" />
          </mxGeometry>
        </mxCell>
        <mxCell id="96SAA42TS0Xs-A5mXOcb-49" value="" style="endArrow=classic;html=1;rounded=0;entryX=0;entryY=0;entryDx=0;entryDy=0;" edge="1" parent="1" source="96SAA42TS0Xs-A5mXOcb-1" target="96SAA42TS0Xs-A5mXOcb-34">
          <mxGeometry width="50" height="50" relative="1" as="geometry">
            <mxPoint x="200" y="440" as="sourcePoint" />
            <mxPoint x="313" y="542" as="targetPoint" />
          </mxGeometry>
        </mxCell>
        <mxCell id="96SAA42TS0Xs-A5mXOcb-50" value="Confirmar n° de inscrição" style="ellipse;whiteSpace=wrap;html=1;" vertex="1" parent="1">
          <mxGeometry x="200" y="810" width="100" height="50" as="geometry" />
        </mxCell>
        <mxCell id="96SAA42TS0Xs-A5mXOcb-51" value="Votar" style="ellipse;whiteSpace=wrap;html=1;" vertex="1" parent="1">
          <mxGeometry x="205" y="870" width="90" height="40" as="geometry" />
        </mxCell>
        <mxCell id="96SAA42TS0Xs-A5mXOcb-64" value="" style="endArrow=classic;html=1;rounded=0;entryX=0;entryY=0.5;entryDx=0;entryDy=0;" edge="1" parent="1" source="96SAA42TS0Xs-A5mXOcb-2" target="96SAA42TS0Xs-A5mXOcb-50">
          <mxGeometry width="50" height="50" relative="1" as="geometry">
            <mxPoint x="220" y="860" as="sourcePoint" />
            <mxPoint x="270" y="810" as="targetPoint" />
          </mxGeometry>
        </mxCell>
        <mxCell id="96SAA42TS0Xs-A5mXOcb-65" value="" style="endArrow=classic;html=1;rounded=0;entryX=0;entryY=0.5;entryDx=0;entryDy=0;" edge="1" parent="1" source="96SAA42TS0Xs-A5mXOcb-2" target="96SAA42TS0Xs-A5mXOcb-51">
          <mxGeometry width="50" height="50" relative="1" as="geometry">
            <mxPoint x="190" y="884" as="sourcePoint" />
            <mxPoint x="280" y="820" as="targetPoint" />
          </mxGeometry>
        </mxCell>
      </root>
    </mxGraphModel>
  </diagram>
</mxfile>
